<svg xmlns="http://www.w3.org/2000/svg" viewBox="0 0 512 512" role="img" aria-labelledby="title">
  <title id="title">Plan by Appetite icon</title>
  <rect width="512" height="512" rx="108" fill="#0B2038"/>
  <path d="M108 408 L202 86 H310 L404 408 H326 L306 326 H206 L186 408 Z" fill="#F4F1EA"/>
  <g transform="translate(256 246)">
    <path d="M-54 0 C-54 50 -34 88 -14 116 C-6 128 6 128 14 116 C34 88 54 50 54 0 C48 -24 28 -34 0 -34 C-28 -34 -48 -24 -54 0 Z" fill="#F2D88B"/>
    <path d="M-22 14 C-22 42 -10 64 0 78 C10 64 22 42 22 14 C18 4 8 0 0 0 C-8 0 -18 4 -22 14 Z" fill="#FFFFFF" opacity=".9"/>
  </g>
  <rect x="126" y="438" width="118" height="16" rx="8" fill="#F2D88B"/>
  <rect x="264" y="438" width="122" height="16" rx="8" fill="#86AAC4"/>
</svg>
